<svg width="26" height="32" viewBox="0 0 26 32" fill="none" xmlns="http://www.w3.org/2000/svg">
<path d="M13 32C9.23542 31.0667 6.12733 28.9397 3.67575 25.6192C1.22417 22.2987 -0.00108262 18.6123 7.17756e-07 14.56V4.8L13 0L26 4.8V14.56C26 18.6133 24.7748 22.3003 22.3243 25.6208C19.8738 28.9413 16.7657 31.0677 13 32ZM13 28.64C15.8167 27.76 18.1458 26 19.9875 23.36C21.8292 20.72 22.75 17.7867 22.75 14.56V7L13 3.4L3.25 7V14.56C3.25 17.7867 4.17083 20.72 6.0125 23.36C7.85417 26 10.1833 27.76 13 28.64Z" fill="#FFD345"/>
</svg>
