<svg width="33" height="33" viewBox="0 0 33 33" fill="none" xmlns="http://www.w3.org/2000/svg">
<g clip-path="url(#clip0_69_1078)">
<path d="M25.1659 12.5507L28.9067 12.2891L29.0375 14.1596L25.2967 14.4212L25.1659 12.5507ZM22.0062 7.68366L24.466 4.85393L25.8809 6.08386L23.421 8.91359L22.0062 7.68366ZM22.8451 19.6806L24.075 18.2658L26.9047 20.7256L25.6748 22.1405L22.8451 19.6806ZM16.0296 2.85193L17.9 2.72113L18.1616 6.462L16.2912 6.59279L16.0296 2.85193ZM17.3572 8.39783C17.0438 8.42163 16.7329 8.47166 16.4278 8.54739L16.562 10.4665C16.8611 10.3615 17.1722 10.2949 17.488 10.2683C18.4801 10.1989 19.4592 10.5265 20.2098 11.179C20.9604 11.8315 21.421 12.7554 21.4904 13.7475C21.5598 14.7397 21.2322 15.7187 20.5797 16.4693C19.9272 17.22 19.0033 17.6806 18.0111 17.75L18.1419 19.6204C19.6301 19.5164 21.0161 18.8254 21.9948 17.6995C22.9735 16.5736 23.4649 15.105 23.3608 13.6167C23.2568 12.1285 22.5658 10.7426 21.4399 9.76388C20.314 8.78515 18.8454 8.29376 17.3572 8.39783ZM10.6722 20.3157L9.81004 7.98578L7.93961 8.11658L8.8018 20.4465C8.19324 20.7107 7.69768 21.1816 7.40272 21.7759C7.10776 22.3702 7.03239 23.0496 7.18992 23.6941C7.34745 24.3386 7.72775 24.9066 8.26359 25.2978C8.79944 25.689 9.45634 25.8782 10.1182 25.8319C10.78 25.7856 11.4042 25.5069 11.8804 25.0449C12.3566 24.5829 12.6541 23.9675 12.7204 23.3073C12.7867 22.6472 12.6175 21.9849 12.2427 21.4374C11.8679 20.89 11.3116 20.4927 10.6722 20.3157Z" fill="#FFD345"/>
<path d="M10.3789 29.5603C9.09027 29.6518 7.80329 29.3606 6.67959 28.7232C5.55589 28.0858 4.64556 27.1306 4.06291 25.9775C3.48027 24.8245 3.25128 23.525 3.40471 22.2422C3.55813 20.9595 4.08713 19.7506 4.92528 18.7675L4.19872 8.37726C4.112 7.13709 4.52148 5.91326 5.3371 4.975C6.15271 4.03675 7.30764 3.46092 8.54782 3.3742C9.78799 3.28748 11.0118 3.69696 11.9501 4.51258C12.8883 5.32819 13.4642 6.48312 13.5509 7.72329L14.2774 18.1135C15.2442 18.9705 15.9363 20.0939 16.2668 21.3428C16.5973 22.5917 16.5513 23.9105 16.1348 25.1334C15.7183 26.3563 14.9498 27.4289 13.9258 28.2165C12.9017 29.0041 11.6678 29.4716 10.3789 29.5603ZM8.67861 5.24463C7.93478 5.29739 7.24227 5.64309 6.75306 6.20588C6.26384 6.76866 6.01788 7.50254 6.06915 8.24647L6.8528 19.4532L6.56186 19.7545C5.8998 20.4351 5.46002 21.3007 5.30073 22.2367C5.14145 23.1727 5.27017 24.135 5.66985 24.9963C6.06954 25.8575 6.72135 26.5771 7.53901 27.0598C8.35667 27.5424 9.30162 27.7654 10.2488 27.6991C11.1959 27.6329 12.1007 27.2806 12.8432 26.6889C13.5857 26.0971 14.131 25.2938 14.407 24.3853C14.6829 23.4768 14.6765 22.506 14.3885 21.6012C14.1004 20.6965 13.5445 19.9005 12.7941 19.3187L12.4641 19.0608L11.6804 7.85409C11.6277 7.11026 11.282 6.41775 10.7192 5.92854C10.1564 5.43932 9.42254 5.19336 8.67861 5.24463Z" fill="#FFD345"/>
</g>
<defs>
<clipPath id="clip0_69_1078">
<rect width="30" height="30" fill="white" transform="translate(0 2.09277) rotate(-4)"/>
</clipPath>
</defs>
</svg>
