<svg width="44" height="38" viewBox="0 0 44 38" fill="none" xmlns="http://www.w3.org/2000/svg">
<path d="M13.5417 0C14.9783 0 16.356 0.570683 17.3718 1.58651C18.3876 2.60233 18.9583 3.98008 18.9583 5.41667V21.6667C18.9583 30.1438 14.4896 35.731 6.07479 37.8354C5.72884 37.9247 5.36864 37.9447 5.01494 37.8942C4.66124 37.8436 4.32103 37.7236 4.01391 37.541C3.70679 37.3585 3.43884 37.1169 3.22548 36.8303C3.01212 36.5437 2.85758 36.2178 2.77076 35.8712C2.68393 35.5246 2.66654 35.1643 2.71959 34.8109C2.77264 34.4576 2.89507 34.1183 3.07984 33.8125C3.26461 33.5066 3.50806 33.2404 3.79617 33.0291C4.08428 32.8178 4.41135 32.6656 4.75854 32.5813C10.79 31.0727 13.5417 27.6331 13.5417 21.6667V18.9583H5.41667C4.05011 18.9588 2.73388 18.4427 1.73185 17.5135C0.729816 16.5842 0.116034 15.3106 0.013542 13.9479L0 13.5417V5.41667C0 3.98008 0.570683 2.60233 1.5865 1.58651C2.60233 0.570683 3.98008 0 5.41667 0H13.5417ZM37.9167 0C39.3533 0 40.731 0.570683 41.7468 1.58651C42.7627 2.60233 43.3333 3.98008 43.3333 5.41667V21.6667C43.3333 30.1438 38.8646 35.731 30.4498 37.8354C30.1038 37.9247 29.7436 37.9447 29.3899 37.8942C29.0362 37.8436 28.696 37.7236 28.3889 37.541C28.0818 37.3585 27.8138 37.1169 27.6005 36.8303C27.3871 36.5437 27.2326 36.2178 27.1458 35.8712C27.0589 35.5246 27.0415 35.1643 27.0946 34.8109C27.1476 34.4576 27.2701 34.1183 27.4548 33.8125C27.6396 33.5066 27.8831 33.2404 28.1712 33.0291C28.4593 32.8178 28.7864 32.6656 29.1335 32.5813C35.165 31.0727 37.9167 27.6331 37.9167 21.6667V18.9583H29.7917C28.4251 18.9588 27.1089 18.4427 26.1069 17.5135C25.1048 16.5842 24.491 15.3106 24.3885 13.9479L24.375 13.5417V5.41667C24.375 3.98008 24.9457 2.60233 25.9615 1.58651C26.9773 0.570683 28.3551 0 29.7917 0H37.9167Z" fill="white"/>
</svg>
