<svg width="27" height="29" viewBox="0 0 27 29" fill="none" xmlns="http://www.w3.org/2000/svg">
<path d="M26.9671 5.43267C26.9181 5.24755 26.8333 5.07407 26.7175 4.92227C26.6017 4.77047 26.4573 4.64337 26.2927 4.5483L18.8307 0.198944C18.6677 0.102486 18.4876 0.0394651 18.3005 0.0134948C18.1134 -0.0124755 17.9231 -0.00088482 17.7405 0.0476024C17.5578 0.0960897 17.3864 0.18052 17.2362 0.296053C17.0859 0.411586 16.9597 0.555949 16.8647 0.720867L13.5068 6.607L10.1489 0.720867C10.054 0.555949 9.92777 0.411586 9.77749 0.296053C9.62721 0.18052 9.45584 0.0960897 9.2732 0.0476024C9.09056 -0.00088482 8.90025 -0.0124755 8.71317 0.0134948C8.52609 0.0394651 8.34592 0.102486 8.18299 0.198944L0.72101 4.5483C0.556318 4.64337 0.411914 4.77047 0.296148 4.92227C0.180382 5.07407 0.0955513 5.24755 0.0465615 5.43267C-0.0484114 5.80012 0.00311443 6.19054 0.190061 6.52001L5.93005 16.4221C5.28917 17.6071 4.93511 18.9286 4.89685 20.2785C4.89344 21.5953 5.18598 22.8957 5.75242 24.0817C6.31887 25.2677 7.14443 26.3082 8.16686 27.1249C9.18929 27.9416 10.3819 28.5131 11.6548 28.7964C12.9277 29.0796 14.2476 29.0672 15.515 28.7601C16.7825 28.4529 17.9643 27.8591 18.9715 27.0233C19.9788 26.1875 20.785 25.1316 21.3295 23.9352C21.874 22.7388 22.1425 21.4331 22.1148 20.1166C22.0872 18.8 21.764 17.507 21.1697 16.3351L26.7662 6.53451C26.8704 6.3735 26.9418 6.19316 26.9763 6.00399C27.0107 5.81482 27.0076 5.62061 26.9671 5.43267ZM3.46185 6.33154L8.42694 3.43197L13.0476 11.5798C11.078 11.7027 9.21158 12.5123 7.76684 13.8704L3.46185 6.33154ZM13.5068 26.0776C11.9845 26.0776 10.5245 25.4667 9.44805 24.3791C8.37159 23.2916 7.76684 21.8165 7.76684 20.2785C7.76684 18.7405 8.37159 17.2654 9.44805 16.1779C10.5245 15.0903 11.9845 14.4793 13.5068 14.4793C15.0292 14.4793 16.4892 15.0903 17.5656 16.1779C18.6421 17.2654 19.2468 18.7405 19.2468 20.2785C19.2468 21.8165 18.6421 23.2916 17.5656 24.3791C16.4892 25.4667 15.0292 26.0776 13.5068 26.0776ZM19.2468 13.8269C18.4677 13.108 17.5625 12.5425 16.5777 12.1597L15.1714 9.50657L18.6441 3.43197L23.6092 6.33154L19.2468 13.8269Z" fill="#FFD345"/>
</svg>
