<svg width="26" height="26" viewBox="0 0 26 26" fill="none" xmlns="http://www.w3.org/2000/svg">
<path fill-rule="evenodd" clip-rule="evenodd" d="M11.0503 2.6C10.6009 2.59985 10.1653 2.75489 9.81707 3.03891C9.46885 3.32292 9.2294 3.71849 9.13923 4.1587C9.10517 4.326 9.03849 4.48496 8.943 4.6265C8.84751 4.76803 8.72507 4.88937 8.58268 4.98359C8.4403 5.07781 8.28074 5.14306 8.11314 5.17562C7.94553 5.20818 7.77315 5.20741 7.60584 5.17335C7.43853 5.13929 7.27957 5.07261 7.13803 4.97712C6.9965 4.88163 6.87515 4.7592 6.78093 4.61682C6.68671 4.47443 6.62146 4.31488 6.5889 4.14728C6.55634 3.97968 6.55711 3.8073 6.59117 3.64C6.76335 2.79651 7.1713 2.01917 7.76764 1.39826C8.36399 0.77736 9.12425 0.338375 9.96013 0.132292C10.796 -0.0737908 11.6732 -0.0385139 12.4898 0.234026C13.3065 0.506565 14.029 1.00518 14.5736 1.67197C15.1181 2.33875 15.4623 3.14634 15.5662 4.00094C15.6701 4.85553 15.5294 5.72207 15.1605 6.4999C14.7915 7.27772 14.2095 7.93492 13.4819 8.39517C12.7544 8.85542 11.9112 9.09982 11.0503 9.1H3.9001C3.55531 9.1 3.22464 8.96304 2.98084 8.71924C2.73703 8.47544 2.60007 8.14478 2.60007 7.8C2.60007 7.45522 2.73703 7.12456 2.98084 6.88076C3.22464 6.63696 3.55531 6.5 3.9001 6.5H11.0503C11.5675 6.5 12.0635 6.29455 12.4292 5.92886C12.7949 5.56316 13.0003 5.06717 13.0003 4.55C13.0003 4.03283 12.7949 3.53684 12.4292 3.17114C12.0635 2.80545 11.5675 2.6 11.0503 2.6ZM21.4505 7.8C21.0012 7.79985 20.5656 7.95489 20.2173 8.23891C19.8691 8.52292 19.6297 8.91849 19.5395 9.3587C19.5055 9.526 19.4389 9.68498 19.3435 9.82655C19.2481 9.96811 19.1257 10.0895 18.9834 10.1838C18.8411 10.2781 18.6816 10.3434 18.514 10.376C18.3464 10.4087 18.1741 10.408 18.0068 10.374C17.8394 10.34 17.6805 10.2734 17.5389 10.178C17.3973 10.0826 17.2759 9.96025 17.1817 9.81793C17.0874 9.6756 17.022 9.5161 16.9894 9.34853C16.9568 9.18096 16.9575 9.0086 16.9914 8.8413C17.1634 7.99769 17.5712 7.22018 18.1674 6.59908C18.7636 5.97798 19.5239 5.53878 20.3598 5.33251C21.1957 5.12624 22.0729 5.16136 22.8897 5.43379C23.7064 5.70622 24.4291 6.20478 24.9738 6.87156C25.5184 7.53833 25.8627 8.34595 25.9667 9.20061C26.0707 10.0553 25.93 10.9219 25.5611 11.6998C25.1921 12.4777 24.61 13.1349 23.8824 13.5952C23.1548 14.0555 22.3115 14.2999 21.4505 14.3H1.30003C0.955243 14.3 0.624574 14.163 0.380771 13.9192C0.136967 13.6754 0 13.3448 0 13C0 12.6552 0.136967 12.3246 0.380771 12.0808C0.624574 11.837 0.955243 11.7 1.30003 11.7H21.4505C21.9677 11.7 22.4637 11.4946 22.8294 11.1289C23.1951 10.7632 23.4006 10.2672 23.4006 9.75C23.4006 9.23283 23.1951 8.73684 22.8294 8.37114C22.4637 8.00545 21.9677 7.8 21.4505 7.8ZM14.3394 21.8413C14.4134 22.2027 14.5884 22.5357 14.8441 22.8016C15.0998 23.0675 15.4256 23.2554 15.7838 23.3435C16.142 23.4317 16.5179 23.4164 16.8678 23.2995C17.2177 23.1826 17.5272 22.9688 17.7605 22.683C17.9937 22.3973 18.1411 22.0512 18.1856 21.685C18.23 21.3188 18.1697 20.9475 18.0116 20.6142C17.8535 20.2809 17.6041 19.9993 17.2923 19.8021C16.9806 19.6049 16.6193 19.5001 16.2504 19.5H7.8002C7.45541 19.5 7.12474 19.363 6.88094 19.1192C6.63713 18.8754 6.50016 18.5448 6.50016 18.2C6.50016 17.8552 6.63713 17.5246 6.88094 17.2808C7.12474 17.037 7.45541 16.9 7.8002 16.9H16.2504C17.1114 16.9001 17.9547 17.1445 18.6823 17.6048C19.4099 18.0651 19.992 18.7223 20.3609 19.5002C20.7299 20.2781 20.8705 21.1447 20.7666 21.9994C20.6626 22.854 20.3183 23.6617 19.7736 24.3284C19.2289 24.9952 18.5063 25.4938 17.6895 25.7662C16.8728 26.0386 15.9955 26.0738 15.1596 25.8675C14.3237 25.6612 13.5635 25.222 12.9673 24.6009C12.371 23.9798 11.9632 23.2023 11.7913 22.3587C11.7227 22.0208 11.7911 21.6695 11.9815 21.3821C12.1719 21.0946 12.4687 20.8946 12.8066 20.826C13.1445 20.7574 13.4958 20.8258 13.7833 21.0162C14.0707 21.2066 14.2708 21.5034 14.3394 21.8413Z" fill="#FFD345"/>
</svg>
