<svg width="18" height="17" viewBox="0 0 18 17" fill="none" xmlns="http://www.w3.org/2000/svg">
<path d="M11.5 15.5C12.7 11.822 14.026 10.495 17.5 9.5C14.026 8.505 12.7 7.178 11.5 3.5C10.3 7.178 8.974 8.505 5.5 9.5C8.974 10.495 10.3 11.822 11.5 15.5ZM3.5 6.5C4.1 4.66 4.763 3.997 6.5 3.5C4.763 3.003 4.1 2.34 3.5 0.5C2.9 2.34 2.237 3.003 0.5 3.5C2.237 3.997 2.9 4.66 3.5 6.5ZM5 16.5C5.3 15.58 5.631 15.249 6.5 15C5.631 14.751 5.3 14.42 5 13.5C4.7 14.42 4.369 14.751 3.5 15C4.369 15.249 4.7 15.58 5 16.5Z" stroke="#FFD345" stroke-linejoin="round"/>
</svg>
