<svg width="28" height="27" viewBox="0 0 28 27" fill="none" xmlns="http://www.w3.org/2000/svg">
<path d="M14.0003 26.8337C12.1559 26.8337 10.4226 26.4834 8.80033 25.783C7.17811 25.0826 5.76699 24.1328 4.56699 22.9337C3.36699 21.7346 2.41722 20.3234 1.71766 18.7003C1.01811 17.0772 0.667883 15.3439 0.666994 13.5003C0.666105 11.6568 1.01633 9.92344 1.71766 8.30033C2.41899 6.67722 3.36877 5.2661 4.56699 4.06699C5.76522 2.86788 7.17633 1.9181 8.80033 1.21766C10.4243 0.517215 12.1577 0.166992 14.0003 0.166992C15.843 0.166992 17.5763 0.517215 19.2003 1.21766C20.8243 1.9181 22.2354 2.86788 23.4337 4.06699C24.6319 5.2661 25.5821 6.67722 26.2843 8.30033C26.9865 9.92344 27.3363 11.6568 27.3337 13.5003C27.331 15.3439 26.9808 17.0772 26.283 18.7003C25.5852 20.3234 24.6354 21.7346 23.4337 22.9337C22.2319 24.1328 20.8208 25.083 19.2003 25.7843C17.5799 26.4857 15.8465 26.8354 14.0003 26.8337ZM14.0003 24.167C16.9781 24.167 19.5003 23.1337 21.567 21.067C23.6337 19.0003 24.667 16.4781 24.667 13.5003C24.667 10.5225 23.6337 8.00033 21.567 5.93366C19.5003 3.86699 16.9781 2.83366 14.0003 2.83366C11.0225 2.83366 8.50033 3.86699 6.43366 5.93366C4.36699 8.00033 3.33366 10.5225 3.33366 13.5003C3.33366 16.4781 4.36699 19.0003 6.43366 21.067C8.50033 23.1337 11.0225 24.167 14.0003 24.167ZM14.0003 21.5003C11.7781 21.5003 9.88922 20.7225 8.33366 19.167C6.77811 17.6114 6.00033 15.7225 6.00033 13.5003C6.00033 11.2781 6.77811 9.38922 8.33366 7.83366C9.88922 6.2781 11.7781 5.50033 14.0003 5.50033C16.2225 5.50033 18.1114 6.2781 19.667 7.83366C21.2225 9.38922 22.0003 11.2781 22.0003 13.5003C22.0003 15.7225 21.2225 17.6114 19.667 19.167C18.1114 20.7225 16.2225 21.5003 14.0003 21.5003ZM14.0003 18.8337C15.467 18.8337 16.7225 18.3114 17.767 17.267C18.8114 16.2225 19.3337 14.967 19.3337 13.5003C19.3337 12.0337 18.8114 10.7781 17.767 9.73366C16.7225 8.68922 15.467 8.16699 14.0003 8.16699C12.5337 8.16699 11.2781 8.68922 10.2337 9.73366C9.18922 10.7781 8.66699 12.0337 8.66699 13.5003C8.66699 14.967 9.18922 16.2225 10.2337 17.267C11.2781 18.3114 12.5337 18.8337 14.0003 18.8337ZM14.0003 16.167C13.267 16.167 12.6394 15.9061 12.1177 15.3843C11.5959 14.8625 11.3345 14.2345 11.3337 13.5003C11.3328 12.7661 11.5941 12.1385 12.1177 11.6177C12.6412 11.0968 13.2688 10.8354 14.0003 10.8337C14.7319 10.8319 15.3599 11.0932 15.8843 11.6177C16.4088 12.1421 16.6697 12.7697 16.667 13.5003C16.6643 14.231 16.4034 14.859 15.8843 15.3843C15.3652 15.9097 14.7372 16.1705 14.0003 16.167Z" fill="#FFD345"/>
</svg>
