<svg width="27" height="28" viewBox="0 0 27 28" fill="none" xmlns="http://www.w3.org/2000/svg">
<path d="M13.5003 27.3337C11.6559 27.3337 9.92255 26.9834 8.30033 26.283C6.67811 25.5826 5.26699 24.6328 4.06699 23.4337C2.86699 22.2346 1.91722 20.8234 1.21766 19.2003C0.518105 17.5772 0.167883 15.8439 0.166994 14.0003C0.166105 12.1568 0.516327 10.4234 1.21766 8.80033C1.91899 7.17722 2.86877 5.7661 4.06699 4.56699C5.26522 3.36788 6.67633 2.4181 8.30033 1.71766C9.92433 1.01721 11.6577 0.666992 13.5003 0.666992C15.343 0.666992 17.0763 1.01721 18.7003 1.71766C20.3243 2.4181 21.7354 3.36788 22.9337 4.56699C24.1319 5.7661 25.0821 7.17722 25.7843 8.80033C26.4865 10.4234 26.8363 12.1568 26.8337 14.0003C26.831 15.8439 26.4808 17.5772 25.783 19.2003C25.0852 20.8234 24.1354 22.2346 22.9337 23.4337C21.7319 24.6328 20.3208 25.583 18.7003 26.2843C17.0799 26.9857 15.3465 27.3354 13.5003 27.3337ZM13.5003 24.667C16.4781 24.667 19.0003 23.6337 21.067 21.567C23.1337 19.5003 24.167 16.9781 24.167 14.0003C24.167 11.0225 23.1337 8.50033 21.067 6.43366C19.0003 4.36699 16.4781 3.33366 13.5003 3.33366C10.5225 3.33366 8.00033 4.36699 5.93366 6.43366C3.86699 8.50033 2.83366 11.0225 2.83366 14.0003C2.83366 16.9781 3.86699 19.5003 5.93366 21.567C8.00033 23.6337 10.5225 24.667 13.5003 24.667ZM13.5003 22.0003C11.2781 22.0003 9.38922 21.2225 7.83366 19.667C6.27811 18.1114 5.50033 16.2225 5.50033 14.0003C5.50033 11.7781 6.27811 9.88922 7.83366 8.33366C9.38922 6.7781 11.2781 6.00033 13.5003 6.00033C15.7225 6.00033 17.6114 6.7781 19.167 8.33366C20.7225 9.88922 21.5003 11.7781 21.5003 14.0003C21.5003 16.2225 20.7225 18.1114 19.167 19.667C17.6114 21.2225 15.7225 22.0003 13.5003 22.0003ZM13.5003 19.3337C14.967 19.3337 16.2225 18.8114 17.267 17.767C18.3114 16.7225 18.8337 15.467 18.8337 14.0003C18.8337 12.5337 18.3114 11.2781 17.267 10.2337C16.2225 9.18922 14.967 8.66699 13.5003 8.66699C12.0337 8.66699 10.7781 9.18922 9.73366 10.2337C8.68922 11.2781 8.16699 12.5337 8.16699 14.0003C8.16699 15.467 8.68922 16.7225 9.73366 17.767C10.7781 18.8114 12.0337 19.3337 13.5003 19.3337ZM13.5003 16.667C12.767 16.667 12.1394 16.4061 11.6177 15.8843C11.0959 15.3625 10.8345 14.7345 10.8337 14.0003C10.8328 13.2661 11.0941 12.6385 11.6177 12.1177C12.1412 11.5968 12.7688 11.3354 13.5003 11.3337C14.2319 11.3319 14.8599 11.5932 15.3843 12.1177C15.9088 12.6421 16.1697 13.2697 16.167 14.0003C16.1643 14.731 15.9034 15.359 15.3843 15.8843C14.8652 16.4097 14.2372 16.6705 13.5003 16.667Z" fill="white"/>
</svg>
