<svg width="27" height="25" viewBox="0 0 27 25" fill="none" xmlns="http://www.w3.org/2000/svg">
<path d="M13.6337 20.7333L13.5003 20.8667L13.3537 20.7333C7.02033 14.9867 2.83366 11.1867 2.83366 7.33333C2.83366 4.66667 4.83366 2.66667 7.50033 2.66667C9.55366 2.66667 11.5537 4 12.2603 5.81333H14.7403C15.447 4 17.447 2.66667 19.5003 2.66667C22.167 2.66667 24.167 4.66667 24.167 7.33333C24.167 11.1867 19.9803 14.9867 13.6337 20.7333ZM19.5003 0C17.1803 0 14.9537 1.08 13.5003 2.77333C12.047 1.08 9.82033 0 7.50033 0C3.39366 0 0.166992 3.21333 0.166992 7.33333C0.166992 12.36 4.70033 16.48 11.567 22.7067L13.5003 24.4667L15.4337 22.7067C22.3003 16.48 26.8337 12.36 26.8337 7.33333C26.8337 3.21333 23.607 0 19.5003 0Z" fill="white"/>
</svg>
