<svg width="35" height="34" viewBox="0 0 35 34" fill="none" xmlns="http://www.w3.org/2000/svg">
<path d="M19.2777 15.2215C19.2777 13.3355 18.5285 11.5267 17.1949 10.1931C15.8614 8.85956 14.0526 8.11035 12.1667 8.11035C10.2807 8.11035 8.47201 8.85956 7.13843 10.1931C5.80486 11.5267 5.05566 13.3355 5.05566 15.2215C5.05566 17.1074 5.80486 18.9162 7.13843 20.2498C8.47201 21.5834 10.2807 22.3326 12.1667 22.3326C14.0526 22.3326 15.8614 21.5834 17.1949 20.2498C18.5285 18.9162 19.2777 17.1074 19.2777 15.2215Z" stroke="white" stroke-width="2" stroke-linecap="round" stroke-linejoin="round"/>
<path d="M15.722 8.71872C15.4977 7.12311 15.8913 5.88195 16.7109 4.49471C17.5306 3.10746 18.797 2.03971 20.3029 1.46638C21.8087 0.893038 23.4646 0.848106 24.9993 1.33894C26.534 1.82977 27.8565 2.82727 28.7502 4.16803C29.6438 5.50878 30.0557 7.11329 29.9182 8.71872C29.7808 10.3241 29.1022 11.8353 27.9936 13.0046C26.885 14.1739 25.4122 14.9321 23.8164 15.1549C22.2206 15.3777 21.0953 15.1553 19.7089 14.3343M22.833 32.9989C22.833 30.1699 21.7093 27.4568 19.7089 25.4565C17.7085 23.4561 14.9955 22.3323 12.1665 22.3323C9.33758 22.3323 6.62451 23.4561 4.62415 25.4565C2.62379 27.4568 1.5 30.1699 1.5 32.9989" stroke="white" stroke-width="2" stroke-linecap="round" stroke-linejoin="round"/>
<path d="M33.4995 25.8874C33.4995 23.0584 32.3757 20.3453 30.3754 18.3449C28.375 16.3445 25.6619 15.2207 22.833 15.2207" stroke="white" stroke-width="2" stroke-linecap="round" stroke-linejoin="round"/>
</svg>
