<svg width="28" height="28" viewBox="0 0 28 28" fill="none" xmlns="http://www.w3.org/2000/svg">
<path d="M14.0003 24.667C16.8293 24.667 19.5424 23.5432 21.5428 21.5428C23.5432 19.5424 24.667 16.8293 24.667 14.0003C24.667 11.1713 23.5432 8.45824 21.5428 6.45785C19.5424 4.45747 16.8293 3.33366 14.0003 3.33366C11.1713 3.33366 8.45824 4.45747 6.45785 6.45785C4.45747 8.45824 3.33366 11.1713 3.33366 14.0003C3.33366 16.8293 4.45747 19.5424 6.45785 21.5428C8.45824 23.5432 11.1713 24.667 14.0003 24.667ZM14.0003 0.666992C15.7513 0.666992 17.4851 1.01187 19.1028 1.68193C20.7204 2.35199 22.1903 3.33412 23.4284 4.57223C24.6665 5.81035 25.6487 7.2802 26.3187 8.89788C26.9888 10.5156 27.3337 12.2494 27.3337 14.0003C27.3337 17.5365 25.9289 20.9279 23.4284 23.4284C20.9279 25.9289 17.5365 27.3337 14.0003 27.3337C6.62699 27.3337 0.666992 21.3337 0.666992 14.0003C0.666992 10.4641 2.07175 7.07272 4.57223 4.57223C7.07272 2.07175 10.4641 0.666992 14.0003 0.666992ZM14.667 7.33366V14.3337L20.667 17.8937L19.667 19.5337L12.667 15.3337V7.33366H14.667Z" fill="#FFD345"/>
</svg>
