<svg width="25" height="29" viewBox="0 0 25 29" fill="none" xmlns="http://www.w3.org/2000/svg">
<path d="M12.5 15.834C14.7091 15.834 16.5 14.0431 16.5 11.834C16.5 9.62485 14.7091 7.83398 12.5 7.83398C10.2909 7.83398 8.5 9.62485 8.5 11.834C8.5 14.0431 10.2909 15.834 12.5 15.834Z" stroke="#FFD345" stroke-width="2" stroke-linecap="round" stroke-linejoin="round"/>
<path d="M12.4997 1.16699C9.6707 1.16699 6.95759 2.2908 4.9572 4.29119C2.95681 6.29157 1.83301 9.00468 1.83301 11.8337C1.83301 14.3563 2.36901 16.007 3.83301 17.8337L12.4997 27.8337L21.1663 17.8337C22.6303 16.007 23.1663 14.3563 23.1663 11.8337C23.1663 9.00468 22.0425 6.29157 20.0421 4.29119C18.0418 2.2908 15.3287 1.16699 12.4997 1.16699Z" stroke="#FFD345" stroke-width="2" stroke-linecap="round" stroke-linejoin="round"/>
</svg>
