<svg width="27" height="23" viewBox="0 0 27 23" fill="none" xmlns="http://www.w3.org/2000/svg">
<path d="M2.83366 22.1663C2.10033 22.1663 1.47277 21.9055 0.950992 21.3837C0.429214 20.8619 0.167881 20.2339 0.166992 19.4997V3.49967C0.166992 2.76634 0.428326 2.13879 0.950992 1.61701C1.47366 1.09523 2.10121 0.833897 2.83366 0.833008H24.167C24.9003 0.833008 25.5283 1.09434 26.051 1.61701C26.5737 2.13967 26.8345 2.76723 26.8337 3.49967V19.4997C26.8337 20.233 26.5728 20.861 26.051 21.3837C25.5292 21.9063 24.9012 22.1672 24.167 22.1663H2.83366ZM24.167 6.16634L14.2003 12.3997C14.0892 12.4663 13.9728 12.5166 13.851 12.5503C13.7292 12.5841 13.6123 12.6006 13.5003 12.5997C13.3883 12.5988 13.2719 12.5823 13.151 12.5503C13.0301 12.5183 12.9132 12.4681 12.8003 12.3997L2.83366 6.16634V19.4997H24.167V6.16634ZM13.5003 10.1663L24.167 3.49967H2.83366L13.5003 10.1663ZM2.83366 6.49967V4.53301V4.56634V4.55034V6.49967Z" fill="#FFD345"/>
</svg>
