<svg width="25" height="25" viewBox="0 0 25 25" fill="none" xmlns="http://www.w3.org/2000/svg">
<path d="M5.22 3.16667C5.3 4.35333 5.5 5.51333 5.82 6.62L4.22 8.22C3.67333 6.62 3.32667 4.92667 3.20667 3.16667H5.22ZM18.3667 19.1933C19.5 19.5133 20.66 19.7133 21.8333 19.7933V21.78C20.0733 21.66 18.38 21.3133 16.7667 20.78L18.3667 19.1933ZM6.5 0.5H1.83333C1.1 0.5 0.5 1.1 0.5 1.83333C0.5 14.3533 10.6467 24.5 23.1667 24.5C23.9 24.5 24.5 23.9 24.5 23.1667V18.5133C24.5 17.78 23.9 17.18 23.1667 17.18C21.5133 17.18 19.9 16.9133 18.4067 16.42C18.2746 16.3707 18.1342 16.348 17.9933 16.3533C17.6467 16.3533 17.3133 16.4867 17.0467 16.74L14.1133 19.6733C10.334 17.7404 7.25955 14.666 5.32667 10.8867L8.26 7.95333C8.63333 7.58 8.74 7.06 8.59333 6.59333C8.08843 5.05719 7.83187 3.45032 7.83333 1.83333C7.83333 1.1 7.23333 0.5 6.5 0.5Z" fill="#FFD345"/>
</svg>
